HIERARCHY
ROOT Hips
{
	OFFSET 0.00000 0.00000 0.00000
	CHANNELS 6 Xposition Yposition Zposition Zrotation Yrotation Xrotation 
	JOINT LHipJoint
	{
		OFFSET 0 0 0
		CHANNELS 3 Zrotation Yrotation Xrotation
		JOINT LeftHip
		{
			OFFSET 1.26600 -1.82114 0.91038
			CHANNELS 3 Zrotation Yrotation Xrotation
			JOINT LeftKnee
			{
				OFFSET 2.50076 -6.87080 0.00000
				CHANNELS 3 Zrotation Yrotation Xrotation
				JOINT LeftAnkle
				{
					OFFSET 2.57364 -7.07102 0.00000
					CHANNELS 3 Zrotation Yrotation Xrotation
					JOINT LeftToe
					{
						OFFSET 0.13572 -0.37290 1.97004
						CHANNELS 3 Zrotation Yrotation Xrotation
						End Site
						{
							OFFSET 0.00000 -0.00000 1.01383
						}
					}
				}
			}
		}
	}
	JOINT RHipJoint
	{
		OFFSET 0 0 0
		CHANNELS 3 Zrotation Yrotation Xrotation
		JOINT RightHip
		{
			OFFSET -1.20803 -1.82114 0.91038
			CHANNELS 3 Zrotation Yrotation Xrotation
			JOINT RightKnee
			{
				OFFSET -2.54916 -7.00377 0.00000
				CHANNELS 3 Zrotation Yrotation Xrotation
				JOINT RightAnkle
				{
					OFFSET -2.56374 -7.04382 0.00000
					CHANNELS 3 Zrotation Yrotation Xrotation
					JOINT RightToe
					{
						OFFSET -0.23520 -0.64621 2.09921
						CHANNELS 3 Zrotation Yrotation Xrotation
						End Site
						{
							OFFSET -0.00000 -0.00000 1.10065
						}
					}
				}
			}
		}
	}
	JOINT lowerback
	{
		OFFSET 0 0 0
		CHANNELS 3 Zrotation Yrotation Xrotation
		JOINT Chest
		{
			OFFSET 0.05492 2.10797 -0.12074
			CHANNELS 3 Zrotation Yrotation Xrotation
			JOINT Chest2
			{
				OFFSET 0.04577 2.11592 -0.04483
				CHANNELS 3 Zrotation Yrotation Xrotation
				JOINT lowerneck
				{
					OFFSET 0 0 0
					CHANNELS 3 Zrotation Yrotation Xrotation
					JOINT Neck
					{
						OFFSET -0.10759 1.80167 0.15770
						CHANNELS 3 Zrotation Yrotation Xrotation
						JOINT Head
						{
							OFFSET 0.09237 1.77509 -0.40848
							CHANNELS 3 Zrotation Yrotation Xrotation
							End Site
							{
								OFFSET 0.03805 1.84093 -0.15754
							}
						}
					}
				}
				JOINT LeftCollar
				{
					OFFSET 0 0 0
					CHANNELS 3 Zrotation Yrotation Xrotation
					JOINT LeftShoulder
					{
						OFFSET 3.42372 1.09575 -0.28209
CHANNELS 3 Zrotation Xrotation Yrotation
						JOINT LeftElbow
						{
OFFSET 0 -4.956810 0.000000
CHANNELS 3 Zrotation Xrotation Yrotation
							JOINT LeftWrist
							{
OFFSET 0 -3.409150 0.000000
CHANNELS 3 Zrotation Xrotation Yrotation
								JOINT lhand
								{
									OFFSET 0 0 0
CHANNELS 3 Zrotation Xrotation Yrotation
									JOINT LFingers
									{
OFFSET 0 -0.616400 0.000000
CHANNELS 3 Zrotation Xrotation Yrotation
										End Site
										{
OFFSET 0 -0.496960 0.000000
										}
									}
								}
								JOINT LThumb
								{
OFFSET 0 0.000000 0.000000
CHANNELS 3 Zrotation Xrotation Yrotation
									End Site
									{
OFFSET 0 -0.504550 0.504550
									}
								}
							}
						}
					}
				}
				JOINT RightCollar
				{
					OFFSET 0 0 0
					CHANNELS 3 Zrotation Yrotation Xrotation
					JOINT RightShoulder
					{
						OFFSET -3.24731 1.15872 -0.32221
CHANNELS 3 Zrotation Xrotation Yrotation
						JOINT RightElbow
						{
OFFSET 0 -5.352000 0.000000
CHANNELS 3 Zrotation Xrotation Yrotation
							JOINT RightWrist
							{
OFFSET 0 -3.437210 -0.000000
CHANNELS 3 Zrotation Xrotation Yrotation
								JOINT rhand
								{
									OFFSET 0 0 0
CHANNELS 3 Zrotation Xrotation Yrotation
									JOINT RFingers
									{
OFFSET 0 -0.720090 0.000000
CHANNELS 3 Zrotation Xrotation Yrotation
										End Site
										{
OFFSET 0 -0.580560 0.000000
										}
									}
								}
								JOINT RThumb
								{
OFFSET 0 0.000000 0.000000
CHANNELS 3 Zrotation Xrotation Yrotation
									End Site
									{
OFFSET 0 -0.589420 0.589420
									}
								}
							}
						}
					}
				}
			}
		}
	}
}
MOTION
Frames: 11
Frame Time: 0.008333333333333333
-13.484900 17.491700 10.811000 -139.905000 84.479500 -138.293000 0.000000 0.000000 0.000000 -15.927900 -5.384000 -5.155700 2.271700 9.410500 27.088100 0.803200 -10.197700 -16.470900 0.201500 2.890200 7.973100 0.000000 0.000000 0.000000 24.371000 -2.014200 -8.606300 -2.750800 -10.280200 29.888900 -1.069200 12.777500 -19.263300 -1.408700 -7.507200 21.227100 1.208400 0.737200 0.938400 3.201000 1.070100 -0.286900 2.587900 0.557300 -0.860000 -7.627600 -1.327800 -15.296400 -0.040700 2.110800 36.658000 1.837700 0.337900 15.432800 -0.000000 0.000000 0.000000 -0.504300 7.875600 -6.793200 12.262100 -20.196500 2.191900 10.883500 10.955300 -19.177100 0.000000 0.000000 0.000000 -7.125000 0.000000 0.000000 -16.884900 48.727700 1.594200 -0.000000 0.000000 0.000000 -4.794300 4.393700 10.330200 -12.370300 -20.357600 -2.229400 -14.248400 -6.818400 -12.336500 0.000000 0.000000 0.000000 7.125000 0.000000 -0.000000 9.017000 17.359700 5.990900
-13.493894 17.495092 10.802098 -145.758172 84.097538 -144.175821 0.000000 0.000000 0.000000 -16.146350 -5.490263 -5.496830 2.349984 9.559771 27.562707 0.793478 -10.734151 -16.503035 0.182439 2.751432 7.587500 0.000000 0.000000 0.000000 24.082250 -2.422486 -8.577158 -2.715102 -10.218903 29.688611 -1.091569 12.528043 -19.375219 -1.484434 -7.697636 21.799406 1.211170 0.579204 1.246751 3.140871 0.853182 0.132062 2.527108 0.446444 -0.594474 -7.362673 -1.411519 -15.344957 -0.193898 2.069470 37.284675 1.736212 0.334826 15.763696 0.000000 0.000000 0.000000 -1.036275 8.508838 -7.636658 12.573610 -20.659254 2.300681 12.016441 10.213846 -19.697382 0.000000 0.000000 0.000000 -7.125000 0.000000 0.000000 -16.034799 49.397549 1.779930 0.000000 0.000000 0.000000 -4.912707 4.838731 9.701266 -11.647636 -19.274057 -1.984378 -12.967216 -3.288197 -11.681634 0.000000 0.000000 0.000000 7.125000 0.000000 0.000000 9.918875 18.104030 6.442987
-13.514413 17.502364 10.807329 -144.931569 83.763147 -143.131402 0.000000 0.000000 0.000000 -15.777682 -5.467196 -5.626492 2.255572 9.379251 26.989111 0.756444 -10.683091 -16.157805 0.091295 1.948238 5.362558 0.000000 0.000000 0.000000 24.421982 -2.345249 -9.003324 -2.743729 -10.268248 29.849659 -1.094818 12.402614 -19.371110 -1.385291 -7.447177 21.047229 1.366390 0.720338 1.532523 3.358368 1.055668 0.334355 2.658162 0.550473 -0.555889 -7.617676 -1.759369 -15.094100 0.216856 1.554663 37.881474 1.884578 0.148115 16.024415 0.000000 0.000000 0.000000 -1.727639 9.023509 -8.847059 13.430542 -21.914685 2.611742 11.579049 10.163717 -19.344251 0.000000 0.000000 0.000000 -7.125000 0.000000 0.000000 -16.303518 48.990231 1.644180 0.000000 0.000000 0.000000 -5.389471 5.677166 10.187324 -12.164696 -20.051135 -2.158379 -13.250492 -4.539924 -12.380352 0.000000 0.000000 0.000000 7.125000 0.000000 0.000000 9.707184 17.381575 6.457961
-13.541324 17.512216 10.810497 -142.460311 83.636335 -140.142708 0.000000 0.000000 0.000000 -15.450381 -6.639152 -5.859937 2.269705 9.406603 27.075743 0.794551 -10.490750 -16.456352 0.284998 3.433001 9.486839 0.000000 0.000000 0.000000 24.780931 -1.896546 -9.534327 -2.722235 -10.231288 29.728932 -1.086663 12.145826 -19.251463 -1.388090 -7.454395 21.068783 1.892263 0.871150 1.403977 3.465138 1.258932 0.554118 2.473254 0.654638 -0.257256 -8.197110 -2.002349 -14.535235 0.954484 1.018245 37.662368 2.203388 -0.045122 15.795510 0.000000 0.000000 0.000000 -2.450374 9.176449 -9.315930 14.629015 -23.626810 3.075732 11.705640 10.962317 -19.621643 0.000000 0.000000 0.000000 -7.125000 0.000000 0.000000 -16.296090 49.277877 1.761401 0.000000 0.000000 0.000000 -5.723772 5.535165 10.670997 -12.937818 -21.196032 -2.430779 -14.082450 -6.445164 -11.943015 0.000000 0.000000 0.000000 7.125000 0.000000 0.000000 9.137624 17.770096 5.989832
-13.590104 17.532788 10.847907 -137.123270 84.177850 -134.538254 0.000000 0.000000 0.000000 -14.664214 -5.158573 -7.114354 2.339893 9.540797 27.501954 0.517669 -13.052978 -14.722248 1.139449 6.768487 19.035883 0.000000 0.000000 0.000000 25.225987 -0.146288 -9.293605 -2.647920 -10.101986 29.307555 -1.149582 10.921343 -19.503426 -1.482170 -7.691947 21.782171 1.651213 0.878180 2.146730 3.568158 1.295895 0.591254 2.701696 0.673806 -0.644251 -8.078365 -1.940006 -14.852290 1.132217 1.092219 38.205996 2.291292 0.014922 16.141065 0.000000 0.000000 0.000000 -2.206667 8.167930 -11.549598 13.989537 -22.719753 2.824113 14.906256 9.114895 -17.594911 0.000000 0.000000 0.000000 -7.125000 0.000000 0.000000 -12.567367 47.743457 0.863514 0.000000 0.000000 0.000000 -5.656885 4.486759 10.280682 -13.618741 -22.187029 -2.682451 -15.221369 -7.460077 -12.068777 0.000000 0.000000 0.000000 7.125000 0.000000 0.000000 8.344221 17.565390 5.495726
-13.582938 17.512866 10.877715 -132.549459 84.532734 -129.247691 0.000000 0.000000 0.000000 -14.412643 -3.936828 -8.282345 2.325311 9.513147 27.414045 0.631186 -13.007003 -15.733346 0.265301 3.312918 9.151291 0.000000 0.000000 0.000000 25.404102 1.212869 -9.974049 -2.767581 -10.308887 29.982939 -1.228626 10.825131 -20.098146 -1.673758 -8.150651 23.172622 1.969175 0.876257 1.659676 3.359980 1.273536 0.560074 2.317009 0.660375 -0.390799 -8.001140 -1.982011 -14.349341 1.357552 0.808758 37.821583 2.308431 -0.057648 15.831154 0.000000 0.000000 0.000000 -1.512040 7.841958 -12.921241 14.619574 -23.613436 3.071955 15.384780 8.985030 -17.968456 0.000000 0.000000 0.000000 -7.125000 0.000000 0.000000 -12.242709 48.184080 0.975355 0.000000 0.000000 0.000000 -5.477511 3.876418 11.588100 -15.054457 -24.221887 -3.248234 -16.088524 -9.796079 -12.100008 0.000000 0.000000 0.000000 7.125000 0.000000 0.000000 7.740868 17.471607 5.106744
-13.588726 17.483734 10.944568 -137.216134 86.224474 -134.012771 0.000000 0.000000 0.000000 -15.757770 -3.015836 -7.995565 2.229824 9.329148 26.830552 0.532602 -13.453977 -15.019791 0.566787 4.821204 13.399442 0.000000 0.000000 0.000000 24.047560 1.448499 -10.702281 -3.028651 -10.741323 31.412312 -1.257186 10.769018 -20.307241 -1.285352 -7.183961 20.261498 -0.141835 0.454227 2.301298 3.181970 0.664903 0.852327 3.330271 0.348072 -0.455682 -7.916910 -1.465395 -14.851155 1.450425 1.490900 37.633933 2.443044 0.228508 15.806092 0.000000 0.000000 0.000000 -1.499144 7.045802 -12.359678 15.313450 -24.580939 3.355280 15.323685 8.692502 -18.220075 0.000000 0.000000 0.000000 -7.125000 0.000000 0.000000 -12.383699 48.427005 1.061917 0.000000 0.000000 0.000000 -6.029886 2.665828 14.591252 -16.866918 -26.682034 -4.027414 -16.163534 -11.963715 -12.150296 0.000000 0.000000 0.000000 7.125000 0.000000 0.000000 7.688618 17.414447 5.081323
-13.560373 17.478891 11.030887 -131.251394 86.642455 -128.152259 0.000000 0.000000 0.000000 -15.582178 -3.814043 -7.486370 2.307084 9.478315 27.303248 0.609214 -12.979867 -15.528297 0.937691 6.167722 17.271760 0.000000 0.000000 0.000000 24.356157 1.991797 -10.337574 -3.060660 -10.792578 31.583554 -1.279434 10.970200 -20.504545 -1.442016 -7.591119 21.479089 -0.093415 0.362260 2.401317 2.900220 0.532961 1.139152 3.015943 0.277077 -0.206827 -7.852182 -1.478750 -14.697924 1.839404 1.254242 37.550829 2.552202 0.187078 15.730364 0.000000 0.000000 0.000000 -0.345062 6.059403 -13.137946 16.128507 -25.694534 3.701487 16.720106 8.899478 -19.107422 0.000000 0.000000 0.000000 -7.125000 0.000000 0.000000 -11.360671 49.525248 1.282290 0.000000 0.000000 0.000000 -5.592604 2.173389 16.675260 -19.041013 -29.469624 -5.051017 -17.633402 -13.910902 -12.513249 0.000000 0.000000 0.000000 7.125000 0.000000 0.000000 6.669895 16.926337 4.469703
-13.506470 17.433609 11.139708 -133.203020 87.228450 -130.607684 0.000000 0.000000 0.000000 -15.858469 -2.440792 -7.565443 2.390559 9.636159 27.806370 0.665473 -11.876898 -15.662642 0.127122 2.294075 6.319351 0.000000 0.000000 0.000000 24.254889 2.412019 -9.927924 -3.252633 -11.093210 32.594760 -1.421748 10.600369 -21.506308 -1.054043 -6.528131 18.324590 -0.620175 0.409329 2.940401 2.543829 0.578544 1.225623 2.940493 0.297290 -0.423816 -7.619077 -1.661293 -14.160769 1.879834 0.865048 37.644754 2.461151 0.070719 15.671370 0.000000 0.000000 0.000000 0.610471 5.568957 -13.768864 17.021707 -26.886349 4.097101 18.078870 8.407570 -18.282358 0.000000 0.000000 0.000000 -7.125000 0.000000 0.000000 -9.796948 48.894171 0.949155 0.000000 0.000000 0.000000 -5.477721 2.119512 18.125348 -20.620989 -31.383252 -5.851331 -17.223467 -15.531906 -12.627342 0.000000 0.000000 0.000000 7.125000 0.000000 0.000000 6.955186 16.841275 4.676734
-13.456171 17.428708 11.246965 -115.841008 85.247149 -113.808489 0.000000 0.000000 0.000000 -13.001107 -4.140924 -8.717322 3.188006 10.993167 32.256937 0.642170 -11.298014 -15.270859 0.359208 3.850134 10.655360 0.000000 0.000000 0.000000 27.122367 1.451669 -8.625629 -2.948609 -10.611349 30.979937 -1.284570 11.316568 -20.595681 -1.216755 -6.997097 19.706722 1.975366 0.038228 3.393600 3.087279 0.192870 1.579152 2.053040 0.122783 -0.287212 -7.700494 -1.488672 -14.251422 1.964127 1.120932 37.685743 2.555874 0.171736 15.695033 0.000000 0.000000 0.000000 1.184351 5.131034 -14.113734 18.712207 -29.059489 4.890302 18.557769 7.102617 -18.036000 0.000000 0.000000 0.000000 -7.125000 0.000000 0.000000 -9.266228 48.713616 0.855559 0.000000 0.000000 0.000000 -5.439679 1.525992 19.138729 -21.405890 -32.299116 -6.265399 -17.336975 -15.557426 -12.969802 0.000000 0.000000 0.000000 7.125000 0.000000 0.000000 6.880516 16.477974 4.680451
-13.407430 17.454851 11.373418 -109.346250 84.081480 -108.095284 0.000000 0.000000 0.000000 -10.579813 -4.063644 -12.939005 4.986353 13.367955 40.762836 0.225544 -10.893190 -10.704432 0.006892 0.517446 1.421898 0.000000 0.000000 0.000000 28.944072 -0.035073 -6.884505 -2.550875 -9.929762 28.749690 -1.049752 12.416855 -19.026500 -1.778794 -8.389149 23.902558 3.341798 0.079011 4.182809 3.498262 0.349563 1.934021 1.704056 0.219162 -0.361343 -7.819802 -1.611359 -14.048004 2.036035 0.947025 37.741282 2.579508 0.096373 15.686444 0.000000 0.000000 0.000000 1.436927 4.631846 -15.019941 20.192485 -30.873504 5.629792 20.723206 6.102725 -17.998537 0.000000 0.000000 0.000000 -7.125000 0.000000 0.000000 -7.183458 49.001369 0.712259 0.000000 0.000000 0.000000 -5.971736 0.940063 19.554493 -20.834197 -31.634300 -5.962709 -17.913703 -15.380329 -13.367793 0.000000 0.000000 0.000000 7.125000 0.000000 0.000000 6.489381 16.016584 4.476154
